<svg width="2844" height="906" viewBox="0 0 2844 906" fill="none" xmlns="http://www.w3.org/2000/svg">
<path d="M0.557617 432.442V863.987H39.7093H78.8609L79.0191 558.792L79.2564 253.597L314.562 571.102C443.96 745.673 552.636 892.268 555.958 896.846L562.048 905.188L562.127 473.541V41.9957H523.371H484.614L484.456 347.496L484.219 652.996L245.354 330.71C113.979 153.392 5.14508 6.69481 3.5632 4.66018L0.557617 0.89611V432.442Z" fill="white"/>
<path d="M2180.24 430.916C2099.01 667.136 2032.33 861.24 2032.09 862.258C2031.54 863.885 2033.91 863.987 2074.96 863.987H2118.39L2158.8 741.095L2199.14 618.305H2327.99H2456.83L2497.33 740.892L2537.82 863.478L2581.48 863.784C2616.28 863.987 2624.98 863.784 2624.67 862.766C2621.11 851.677 2328.86 2.62549 2328.46 2.11683C2328.14 1.70991 2261.47 194.695 2180.24 430.916ZM2376.94 375.268C2403.52 455.535 2425.35 521.66 2425.43 522.169C2425.59 522.779 2390.07 523.186 2328.3 523.186C2269.14 523.186 2231.02 522.779 2231.17 522.271C2232.91 515.963 2327.99 229.182 2328.3 229.182C2328.54 229.182 2350.45 294.9 2376.94 375.268Z" fill="white"/>
<path d="M974.129 30.8052C893.057 37.316 820.607 78.8225 765.004 150.34C724.112 202.935 696.033 266.924 681.638 340.985C671.119 395.004 668.509 458.281 674.52 516.472C690.971 676.089 772.359 804.169 889.261 854.424C923.825 869.277 955.463 875.584 995.563 875.584C1027.91 875.584 1052.43 871.922 1079.56 862.97C1160.4 836.52 1230.08 770.292 1272.39 679.853C1313.52 591.855 1328.63 482.188 1314.63 373.844C1300.08 260.922 1251.43 162.751 1179.06 100.491C1133.58 61.4264 1085.97 39.4524 1031.31 32.3312C1016.37 30.5 988.129 29.6862 974.129 30.8052ZM1018.11 131.621C1038.99 133.859 1055.36 138.03 1073.39 145.457C1153.2 178.418 1214.58 268.755 1231.5 378.219C1235.3 402.736 1236.17 413.418 1236.56 444.649C1237.04 477.509 1236.41 490.836 1233.16 516.065C1227.31 561.844 1215.45 600.909 1195.59 639.669C1178.59 672.935 1156.99 701.318 1131.61 723.801C1101.39 750.556 1068.96 766.223 1029.57 773.141C1014.7 775.684 975.948 775.684 961.553 773.141C916.469 765.002 879.137 744.656 844.493 709.355C835.16 699.894 817.206 677.106 809.929 665.61C794.348 640.788 781.376 612.405 772.043 582.597C747.603 504.366 747.682 401.617 772.122 323.182C794.269 252.173 834.765 195.305 887.125 161.632C912.989 144.948 944.469 134.165 975.79 131.214C984.332 130.4 1009.4 130.604 1018.11 131.621Z" fill="white"/>
<path d="M1337.41 88.9956L1337.65 136.097L1419.75 136.403L1501.77 136.606V500.297V863.987H1540.92H1580.07V500.297V136.606H1661.93H1743.8V89.3008V41.9956H1540.52H1337.25L1337.41 88.9956Z" fill="white"/>
<path d="M2783.49 753.506C2773.13 756.558 2764.19 763.171 2756.91 773.039C2749 783.822 2745.13 794.097 2743.63 808.645C2741.41 829.093 2747.03 848.32 2759.6 863.58C2769.57 875.788 2780.56 881.587 2793.77 881.485C2807.77 881.485 2818.37 875.686 2828.65 862.461C2839.57 848.422 2844.63 831.535 2843.68 812.816C2842.34 786.366 2828.97 763.985 2809.59 755.643C2802.08 752.387 2790.53 751.472 2783.49 753.506Z" fill="white"/>
</svg>
